# Aspose.3D Wavefront OBJ Exporter
# Copyright 2004-2023 Aspose Pty Ltd.
# File created: 03/13/2023 20:23:33

mtllib material.lib

#
# object defaultMaterial
#

v -5.33699999999999976 2.60000066754771184 -15.2376208863503706
v -5.33699999999999976 2.60000027414519952 -6.23762088635037948
v 6.66300000000000024 2.60000027414519952 -6.23762088635037948
v 6.66300000000000024 2.60000066754771184 -15.2376208863503706
v -5.33699999999999976 2.60000066754771184 -15.2376208863503706
v -5.33699999999999976 2.50000066605759576 -15.23762089072150872
v -5.33699999999999976 2.50000027265508336 -6.23762089072151848
v -5.33699999999999976 2.60000027414519952 -6.23762088635037948
v -5.33699999999999976 2.60000027414519952 -6.23762088635037948
v -5.33699999999999976 2.50000027265508336 -6.23762089072151848
v 6.66300000000000024 2.50000027265508336 -6.23762089072151848
v 6.66300000000000024 2.60000027414519952 -6.23762088635037948
v 6.66300000000000024 2.60000027414519952 -6.23762088635037948
v 6.66300000000000024 2.50000027265508336 -6.23762089072151848
v 6.66300000000000024 2.50000066605759576 -15.23762089072150872
v 6.66300000000000024 2.60000066754771184 -15.2376208863503706
v 6.66300000000000024 2.60000066754771184 -15.2376208863503706
v 6.66300000000000024 2.50000066605759576 -15.23762089072150872
v -5.33699999999999976 2.50000066605759576 -15.23762089072150872
v -5.33699999999999976 2.60000066754771184 -15.2376208863503706
# 20 vertices

vn 0 0.9999999999999992 4.371139006309477E-08
vn 0 0.9999999999999992 4.371139006309477E-08
vn 0 0.9999999999999992 4.371139006309477E-08
vn 0 0.9999999999999992 4.371139006309477E-08
vn -1 0 0
vn -1 0 0
vn -1 0 0
vn -1 0 0
vn 0 -4.371139006309477E-08 0.9999999999999992
vn 0 -4.371139006309477E-08 0.9999999999999992
vn 0 -4.371139006309477E-08 0.9999999999999992
vn 0 -4.371139006309477E-08 0.9999999999999992
vn 1 0 0
vn 1 0 0
vn 1 0 0
vn 1 0 0
vn 0 4.371139006309477E-08 -0.9999999999999992
vn 0 4.371139006309477E-08 -0.9999999999999992
vn 0 4.371139006309477E-08 -0.9999999999999992
vn 0 4.371139006309477E-08 -0.9999999999999992
# 20 vertex normals

vt 0.00050000002374872 -0.78507602214813232 0
vt 0.00050000002374872 -0.03582600131630897 0
vt 0.9994999766349792 -0.03582600131630897 0
vt 0.9994999766349792 -0.78507602214813232 0
vt 0.00050000002374872 -0.79482001066207888 0
vt 0.00050000002374872 -0.7864949703216552 0
vt 0.749750018119812 -0.7864949703216552 0
vt 0.749750018119812 -0.79482001066207888 0
vt 0.00050000002374872 -0.00882500037550926 0
vt 0.00050000002374872 -0.00050000002374872 0
vt 0.9994999766349792 -0.00050000002374872 0
vt 0.9994999766349792 -0.00882500037550926 0
vt 0.00050000002374872 -0.80806702375411984 0
vt 0.00050000002374872 -0.79974198341369632 0
vt 0.749750018119812 -0.79974198341369632 0
vt 0.749750018119812 -0.80806702375411984 0
vt 0.00050000002374872 -0.02648800052702427 0
vt 0.00050000002374872 -0.01816299930214882 0
vt 0.9994999766349792 -0.01816299930214882 0
vt 0.9994999766349792 -0.02648800052702427 0
# 20 texture coords

g defaultMaterial
usemtl Roof_1001
s 1
f 1/1/1 2/2/2 3/3/3
f 3/3/3 4/4/4 1/1/1
f 5/5/5 6/6/6 7/7/7
f 7/7/7 8/8/8 5/5/5
f 9/9/9 10/10/10 11/11/11
f 11/11/11 12/12/12 9/9/9
f 13/13/13 14/14/14 15/15/15
f 15/15/15 16/16/16 13/13/13
f 17/17/17 18/18/18 19/19/19
f 19/19/19 20/20/20 17/17/17
#10 polygons

