# Aspose.3D Wavefront OBJ Exporter
# Copyright 2004-2023 Aspose Pty Ltd.
# File created: 03/28/2023 18:14:40

mtllib material.lib

#
# object serpents and climbs_boardgames_0
#

v 0.99999997764825824 0.34446377381507044 -1.00000003376854351
v -0.99999997764825824 0.34446377381507044 -1.00000003376854351
v -0.99999997764825824 0.34446409965642144 0.9999999215279464
v 0.99999997764825824 0.34446409965642144 0.9999999215279464
v 0.99999997764825824 -0.34446377381507044 1.00000003376854351
v 0.99999997764825824 0.34446409965642144 0.9999999215279464
v -0.99999997764825824 0.34446409965642144 0.9999999215279464
v -0.99999997764825824 -0.34446377381507044 1.00000003376854351
v -0.99999997764825824 -0.34446377381507044 1.00000003376854351
v -0.99999997764825824 0.34446409965642144 0.9999999215279464
v -0.99999997764825824 0.34446377381507044 -1.00000003376854351
v -0.99999997764825824 -0.34446409965642144 -0.9999999215279464
v -0.99999997764825824 -0.34446409965642144 -0.9999999215279464
v 0.99999997764825824 -0.34446409965642144 -0.9999999215279464
v 0.99999997764825824 -0.34446377381507044 1.00000003376854351
v -0.99999997764825824 -0.34446377381507044 1.00000003376854351
v 0.99999997764825824 -0.34446409965642144 -0.9999999215279464
v 0.99999997764825824 0.34446377381507044 -1.00000003376854351
v 0.99999997764825824 0.34446409965642144 0.9999999215279464
v 0.99999997764825824 -0.34446377381507044 1.00000003376854351
v -0.99999997764825824 -0.34446409965642144 -0.9999999215279464
v -0.99999997764825824 0.34446377381507044 -1.00000003376854351
v 0.99999997764825824 0.34446377381507044 -1.00000003376854351
v 0.99999997764825824 -0.34446409965642144 -0.9999999215279464
# 24 vertices

vn 0 0.99999999999998656 -1.629206789477422E-07
vn 0 0.99999999999998656 -1.629206789477422E-07
vn 0 0.99999999999998656 -1.629206789477422E-07
vn 0 0.99999999999998656 -1.629206789477422E-07
vn 0 1.629206789477422E-07 0.99999999999998656
vn 0 1.629206789477422E-07 0.99999999999998656
vn 0 1.629206789477422E-07 0.99999999999998656
vn 0 1.629206789477422E-07 0.99999999999998656
vn -1 0 0
vn -1 0 0
vn -1 0 0
vn -1 0 0
vn 0 -0.99999999999998656 1.629206789477422E-07
vn 0 -0.99999999999998656 1.629206789477422E-07
vn 0 -0.99999999999998656 1.629206789477422E-07
vn 0 -0.99999999999998656 1.629206789477422E-07
vn 1 0 0
vn 1 0 0
vn 1 0 0
vn 1 0 0
vn 0 -1.629206789477422E-07 -0.99999999999998656
vn 0 -1.629206789477422E-07 -0.99999999999998656
vn 0 -1.629206789477422E-07 -0.99999999999998656
vn 0 -1.629206789477422E-07 -0.99999999999998656
# 24 vertex normals

vt 0.74482786655426032 -0.6695148944854736 0
vt 0.74510985612869264 -0.42602315545082096 0
vt 0.98860162496566768 -0.42630526423454288 0
vt 0.98831957578659056 -0.66979706287384032 0
vt 0.63928866386413576 -0.87473171949386592 0
vt 0.63928866386413576 -0.77969276905059808 0
vt 0.91519248485565184 -0.77969276905059808 0
vt 0.91519248485565184 -0.87473171949386592 0
vt 0.98869878053665168 -0.34243112802505492 0
vt 0.98860162496566768 -0.42630526423454288 0
vt 0.74510985612869264 -0.42602315545082096 0
vt 0.74520707130432128 -0.342149019241333 0
vt 0.74520707130432128 -0.342149019241333 0
vt 0.7454890608787536 -0.09865717589855194 0
vt 0.9889808297157288 -0.09893923997879028 0
vt 0.98869878053665168 -0.34243112802505492 0
vt 0.7454890608787536 -0.09865717589855194 0
vt 0.7455862760543824 -0.01478317379951477 0
vt 0.98907798528671264 -0.01506513357162475 0
vt 0.9889808297157288 -0.09893923997879028 0
vt 0.50199753046035768 -0.09837506711483002 0
vt 0.5020945072174072 -0.01450103521347046 0
vt 0.7455862760543824 -0.01478317379951477 0
vt 0.7454890608787536 -0.09865717589855194 0
# 24 texture coords

g serpents and climbs_boardgames_0
usemtl boardgames
s 1
f 1/1/1 2/2/2 3/3/3
f 1/1/1 3/3/3 4/4/4
f 5/5/5 6/6/6 7/7/7
f 5/5/5 7/7/7 8/8/8
f 9/9/9 10/10/10 11/11/11
f 9/9/9 11/11/11 12/12/12
f 13/13/13 14/14/14 15/15/15
f 13/13/13 15/15/15 16/16/16
f 17/17/17 18/18/18 19/19/19
f 17/17/17 19/19/19 20/20/20
f 21/21/21 22/22/22 23/23/23
f 21/21/21 23/23/23 24/24/24
#12 polygons


#
# object oligopoly_boardgames_0
#

v -1.04665487000705482 0.36934901787373656 0.09238285417892366
v -1.04349453290162119 0.70297866568969592 0.10617377433092512
v -0.38172465290879816 0.78626625988707424 -2.06036959603101666
v -0.38488499001423176 0.4526366120711148 -2.07416051618301811
v -0.38488499001423176 0.4526366120711148 -2.07416051618301811
v -0.38172465290879816 0.78626625988707424 -2.06036959603101666
v 1.01413988135775334 0.75546846186744592 -1.63518723253635432
v 1.01097954425231972 0.42183881405148656 -1.64897815268835576
v 1.01097954425231972 0.42183881405148656 -1.64897815268835576
v 1.01413988135775334 0.75546846186744592 -1.63518723253635432
v 0.35237000136493028 0.67218086767006768 0.53135613782558744
v 0.34920966425949668 0.33855121985410836 0.517565217673586
v 0.34920966425949668 0.33855121985410836 0.517565217673586
v 0.35237000136493028 0.67218086767006768 0.53135613782558744
v -1.04349453290162119 0.70297866568969592 0.10617377433092512
v -1.04665487000705482 0.36934901787373656 0.09238285417892366
v -0.38488499001423176 0.4526366120711148 -2.07416051618301811
v 1.01097954425231972 0.42183881405148656 -1.64897815268835576
v 0.34920966425949668 0.33855121985410836 0.517565217673586
v -1.04665487000705482 0.36934901787373656 0.09238285417892366
v 1.01413988135775334 0.75546846186744592 -1.63518723253635432
v -0.38172465290879816 0.78626625988707424 -2.06036959603101666
v -1.04349453290162119 0.70297866568969592 0.10617377433092512
v 0.35237000136493028 0.67218086767006768 0.53135613782558744
# 24 vertices

vn -0.95639327478276816 0.02110147953545316 -0.29131877988160548
vn -0.95639327478276816 0.02110147953545316 -0.29131877988160548
vn -0.95639327478276816 0.02110147953545316 -0.29131877988160548
vn -0.95639327478276816 0.02110147953545316 -0.29131877988160548
vn 0.29192864719947908 0.03674092073033541 -0.9557341522035136
vn 0.29192864719947908 0.03674092073033541 -0.9557341522035136
vn 0.29192864719947908 0.03674092073033541 -0.9557341522035136
vn 0.29192864719947908 0.03674092073033541 -0.9557341522035136
vn 0.95639327478276816 -0.02110147953545316 0.29131877988160548
vn 0.95639327478276816 -0.02110147953545316 0.29131877988160548
vn 0.95639327478276816 -0.02110147953545316 0.29131877988160548
vn 0.95639327478276816 -0.02110147953545316 0.29131877988160548
vn -0.29192864719947908 -0.03674092073033541 0.9557341522035136
vn -0.29192864719947908 -0.03674092073033541 0.9557341522035136
vn -0.29192864719947908 -0.03674092073033541 0.9557341522035136
vn -0.29192864719947908 -0.03674092073033541 0.9557341522035136
vn -0.00946408445516802 -0.99910201296229088 -0.04129889587051194
vn -0.00946408445516802 -0.99910201296229088 -0.04129889587051194
vn -0.00946408445516802 -0.99910201296229088 -0.04129889587051194
vn -0.00946408445516802 -0.99910201296229088 -0.04129889587051194
vn 0.00946408445516802 0.99910201296229088 0.04129889587051194
vn 0.00946408445516802 0.99910201296229088 0.04129889587051194
vn 0.00946408445516802 0.99910201296229088 0.04129889587051194
vn 0.00946408445516802 0.99910201296229088 0.04129889587051194
# 24 vertex normals

vt 0.14338606595993042 -0.14990249276161194 0
vt 0.00631053373217582 -0.14990249276161194 0
vt 0.00631053373217582 -0.01282695680856704 0
vt 0.14338606595993042 -0.01282694190740585 0
vt 0.28046163916587828 -0.14990249276161194 0
vt 0.41753712296485904 -0.14990249276161194 0
vt 0.41753712296485904 -0.28697803616523744 0
vt 0.28046163916587828 -0.28697803616523744 0
vt 0.14338606595993042 -0.42405360937118528 0
vt 0.00631047412753105 -0.42405360937118528 0
vt 0.00631047412753105 -0.28697800636291504 0
vt 0.14338606595993042 -0.28697803616523744 0
vt 0.14338606595993042 -0.28697803616523744 0
vt 0.00631047412753105 -0.28697800636291504 0
vt 0.00631053373217582 -0.14990249276161194 0
vt 0.14338606595993042 -0.14990249276161194 0
vt 0.28046163916587828 -0.14990249276161194 0
vt 0.28046163916587828 -0.28697803616523744 0
vt 0.14338606595993042 -0.28697803616523744 0
vt 0.14338606595993042 -0.14990249276161194 0
vt 0.41753712296485904 -0.28697803616523744 0
vt 0.41753712296485904 -0.14990249276161194 0
vt 0.55461275577545168 -0.14990252256393432 0
vt 0.55461275577545168 -0.28697803616523744 0
# 24 texture coords

g oligopoly_boardgames_0
usemtl boardgames
s 2
f 25/25/25 26/26/26 27/27/27
f 25/25/25 27/27/27 28/28/28
f 29/29/29 30/30/30 31/31/31
f 29/29/29 31/31/31 32/32/32
f 33/33/33 34/34/34 35/35/35
f 33/33/33 35/35/35 36/36/36
f 37/37/37 38/38/38 39/39/39
f 37/37/37 39/39/39 40/40/40
f 41/41/41 42/42/42 43/43/43
f 41/41/41 43/43/43 44/44/44
f 45/45/45 46/46/46 47/47/47
f 45/45/45 47/47/47 48/48/48
#12 polygons


#
# object oops_boardgames_0
#

v -0.45313234914069168 -0.33663044819820996 -1.21251059940869888
v -0.45313236223671552 0.42475930529120496 -1.2125107221788012
v -0.62887885575872536 0.42475910622729704 -2.42830867869598952
v -0.62887884266270152 -0.33663064726211788 -2.42830855592588704
v -0.62887884266270152 -0.33663064726211788 -2.42830855592588704
v -0.62887885575872536 0.42475910622729704 -2.42830867869598952
v 0.58691910075847896 0.42475909880101384 -2.60405517221800056
v 0.5869191138545028 -0.33663065468840116 -2.604055049447898
v 0.5869191138545028 -0.33663065468840116 -2.604055049447898
v 0.58691910075847896 0.42475909880101384 -2.60405517221800056
v 0.7626655942804888 0.42475929786492176 -1.38825721570081216
v 0.76266560737651264 -0.33663045562449324 -1.38825709293070984
v 0.76266560737651264 -0.33663045562449324 -1.38825709293070984
v 0.7626655942804888 0.42475929786492176 -1.38825721570081216
v -0.45313236223671552 0.42475930529120496 -1.2125107221788012
v -0.45313234914069168 -0.33663044819820996 -1.21251059940869888
v -0.62887884266270152 -0.33663064726211788 -2.42830855592588704
v 0.5869191138545028 -0.33663065468840116 -2.604055049447898
v 0.76266560737651264 -0.33663045562449324 -1.38825709293070984
v -0.45313234914069168 -0.33663044819820996 -1.21251059940869888
v 0.58691910075847896 0.42475909880101384 -2.60405517221800056
v -0.62887885575872536 0.42475910622729704 -2.42830867869598952
v -0.45313236223671552 0.42475930529120496 -1.2125107221788012
v 0.7626655942804888 0.42475929786492176 -1.38825721570081216
# 24 vertices

vn -0.98971323574805488 6.045322561987199E-09 0.14306540806608332
vn -0.98971323574805488 6.045322561987199E-09 0.14306540806608332
vn -0.98971323574805488 6.045322561987199E-09 0.14306540806608332
vn -0.98971323574805488 6.045322561987199E-09 0.14306540806608332
vn -0.14306540806608236 -1.6204681307918634E-07 -0.98971323574804176
vn -0.14306540806608236 -1.6204681307918634E-07 -0.98971323574804176
vn -0.14306540806608236 -1.6204681307918634E-07 -0.98971323574804176
vn -0.14306540806608236 -1.6204681307918634E-07 -0.98971323574804176
vn 0.98971323574805488 -6.045322561987199E-09 -0.14306540806608332
vn 0.98971323574805488 -6.045322561987199E-09 -0.14306540806608332
vn 0.98971323574805488 -6.045322561987199E-09 -0.14306540806608332
vn 0.98971323574805488 -6.045322561987199E-09 -0.14306540806608332
vn 0.14306540806608236 1.6204681307918634E-07 0.98971323574804176
vn 0.14306540806608236 1.6204681307918634E-07 0.98971323574804176
vn 0.14306540806608236 1.6204681307918634E-07 0.98971323574804176
vn 0.14306540806608236 1.6204681307918634E-07 0.98971323574804176
vn 1.7200157700902885E-08 -0.99999999999998672 1.6124475221701573E-07
vn 1.7200157700902885E-08 -0.99999999999998672 1.6124475221701573E-07
vn 1.7200157700902885E-08 -0.99999999999998672 1.6124475221701573E-07
vn 1.7200157700902885E-08 -0.99999999999998672 1.6124475221701573E-07
vn -1.7200157700902885E-08 0.99999999999998672 -1.6124475221701573E-07
vn -1.7200157700902885E-08 0.99999999999998672 -1.6124475221701573E-07
vn -1.7200157700902885E-08 0.99999999999998672 -1.6124475221701573E-07
vn -1.7200157700902885E-08 0.99999999999998672 -1.6124475221701573E-07
# 24 vertex normals

vt 0.54753947257995608 -0.29412171244621276 0
vt 0.68040066957473752 -0.29393044114112856 0
vt 0.68059176206588744 -0.4267916977405548 0
vt 0.54773062467575072 -0.42698290944099424 0
vt 0.54773062467575072 -0.42698290944099424 0
vt 0.68059176206588744 -0.4267916977405548 0
vt 0.68078291416168216 -0.55965292453765872 0
vt 0.54792189598083496 -0.55984413623809816 0
vt 0.54792189598083496 -0.55984413623809816 0
vt 0.68078291416168216 -0.55965292453765872 0
vt 0.68097418546676632 -0.69251418113708496 0
vt 0.5481131076812744 -0.6927054524421692 0
vt 0.41506052017211912 -0.5600353479385376 0
vt 0.28219932317733764 -0.56022661924362184 0
vt 0.28200799226760864 -0.42736536264419552 0
vt 0.41486927866935728 -0.42717412114143368 0
vt 0.54773062467575072 -0.42698290944099424 0
vt 0.54792189598083496 -0.55984413623809816 0
vt 0.41506052017211912 -0.5600353479385376 0
vt 0.41486927866935728 -0.42717412114143368 0
vt 0.1493380069732666 -0.56041783094406128 0
vt 0.14914676547050476 -0.42755660414695736 0
vt 0.28200799226760864 -0.42736536264419552 0
vt 0.28219932317733764 -0.56022661924362184 0
# 24 texture coords

g oops_boardgames_0
usemtl boardgames
s 4
f 49/49/49 50/50/50 51/51/51
f 49/49/49 51/51/51 52/52/52
f 53/53/53 54/54/54 55/55/55
f 53/53/53 55/55/55 56/56/56
f 57/57/57 58/58/58 59/59/59
f 57/57/57 59/59/59 60/60/60
f 61/61/61 62/62/62 63/63/63
f 61/61/61 63/63/63 64/64/64
f 65/65/65 66/66/66 67/67/67
f 65/65/65 67/67/67 68/68/68
f 69/69/69 70/70/70 71/71/71
f 69/69/69 71/71/71 72/72/72
#12 polygons


#
# object drawnslation_boardgames_0
#

v 1.07681019097324726 -0.33857622041431932 -0.05327425192647239
v 1.07681019003032841 0.14388524035944316 -0.05327427299444332
v 0.97308161522781552 0.14388513895057508 -2.37091858945210008
v 0.9730816161707344 -0.33857632182318744 -2.37091856838412872
v 0.9730816161707344 -0.33857632182318744 -2.37091856838412872
v 0.97308161522781552 0.14388513895057508 -2.37091858945210008
v 1.7817477895665952 0.14388513895057508 -2.40711128267923336
v 1.78174779050951408 -0.33857632182318744 -2.40711126161126288
v 1.78174779050951408 -0.33857632182318744 -2.40711126161126288
v 1.7817477895665952 0.14388513895057508 -2.40711128267923336
v 1.885476364369108 0.14388524035944316 -0.08946696622157702
v 1.88547636531202704 -0.33857622041431932 -0.08946694515360609
v 1.88547636531202704 -0.33857622041431932 -0.08946694515360609
v 1.885476364369108 0.14388524035944316 -0.08946696622157702
v 1.07681019003032841 0.14388524035944316 -0.05327427299444332
v 1.07681019097324726 -0.33857622041431932 -0.05327425192647239
v 0.9730816161707344 -0.33857632182318744 -2.37091856838412872
v 1.78174779050951408 -0.33857632182318744 -2.40711126161126288
v 1.88547636531202704 -0.33857622041431932 -0.08946694515360609
v 1.07681019097324726 -0.33857622041431932 -0.05327425192647239
v 1.7817477895665952 0.14388513895057508 -2.40711128267923336
v 0.97308161522781552 0.14388513895057508 -2.37091858945210008
v 1.07681019003032841 0.14388524035944316 -0.05327427299444332
v 1.885476364369108 0.14388524035944316 -0.08946696622157702
# 24 vertices

vn -0.99899995072622096 3.469446951953614E-18 0.04471127876731064
vn -0.99899995072622096 3.469446951953614E-18 0.04471127876731064
vn -0.99899995072622096 3.469446951953614E-18 0.04471127876731064
vn -0.99899995072622096 3.469446951953614E-18 0.04471127876731064
vn -0.04471127876731059 -4.3711389841050163E-08 -0.99899995072622
vn -0.04471127876731059 -4.3711389841050163E-08 -0.99899995072622
vn -0.04471127876731059 -4.3711389841050163E-08 -0.99899995072622
vn -0.04471127876731059 -4.3711389841050163E-08 -0.99899995072622
vn 0.99899995072622096 -3.469446951953614E-18 -0.04471127876731064
vn 0.99899995072622096 -3.469446951953614E-18 -0.04471127876731064
vn 0.99899995072622096 -3.469446951953614E-18 -0.04471127876731064
vn 0.99899995072622096 -3.469446951953614E-18 -0.04471127876731064
vn 0.04471127876731059 4.3711389841050163E-08 0.99899995072622
vn 0.04471127876731059 4.3711389841050163E-08 0.99899995072622
vn 0.04471127876731059 4.3711389841050163E-08 0.99899995072622
vn 0.04471127876731059 4.3711389841050163E-08 0.99899995072622
vn 1.9543921307707546E-09 -0.99999999999999904 4.366767636376778E-08
vn 1.9543921307707546E-09 -0.99999999999999904 4.366767636376778E-08
vn 1.9543921307707546E-09 -0.99999999999999904 4.366767636376778E-08
vn 1.9543921307707546E-09 -0.99999999999999904 4.366767636376778E-08
vn -1.9543921307707546E-09 0.99999999999999904 -4.366767636376778E-08
vn -1.9543921307707546E-09 0.99999999999999904 -4.366767636376778E-08
vn -1.9543921307707546E-09 0.99999999999999904 -4.366767636376778E-08
vn -1.9543921307707546E-09 0.99999999999999904 -4.366767636376778E-08
# 24 vertex normals

vt 0.14899978041648864 -0.99617063999176032 0
vt 0.00602008961141109 -0.99617063999176032 0
vt 0.00602011941373348 -0.85319089889526368 0
vt 0.14899978041648864 -0.85319089889526368 0
vt 0.14899978041648864 -0.85319089889526368 0
vt 0.00602011941373348 -0.85319089889526368 0
vt 0.00602011941373348 -0.71021133661270144 0
vt 0.14899978041648864 -0.71021133661270144 0
vt 0.14899978041648864 -0.71021133661270144 0
vt 0.00602011941373348 -0.71021133661270144 0
vt 0.00602011941373348 -0.5672316551208496 0
vt 0.14899978041648864 -0.5672316551208496 0
vt 0.29197949171066284 -0.71021133661270144 0
vt 0.43495911359786984 -0.71021121740341184 0
vt 0.43495911359786984 -0.85319089889526368 0
vt 0.29197949171066284 -0.85319089889526368 0
vt 0.14899978041648864 -0.85319089889526368 0
vt 0.14899978041648864 -0.71021133661270144 0
vt 0.29197949171066284 -0.71021133661270144 0
vt 0.29197949171066284 -0.85319089889526368 0
vt 0.57793879508972168 -0.71021133661270144 0
vt 0.57793879508972168 -0.85319089889526368 0
vt 0.43495911359786984 -0.85319089889526368 0
vt 0.43495911359786984 -0.71021121740341184 0
# 24 texture coords

g drawnslation_boardgames_0
usemtl boardgames
s 8
f 73/73/73 74/74/74 75/75/75
f 73/73/73 75/75/75 76/76/76
f 77/77/77 78/78/78 79/79/79
f 77/77/77 79/79/79 80/80/80
f 81/81/81 82/82/82 83/83/83
f 81/81/81 83/83/83 84/84/84
f 85/85/85 86/86/86 87/87/87
f 85/85/85 87/87/87 88/88/88
f 89/89/89 90/90/90 91/91/91
f 89/89/89 91/91/91 92/92/92
f 93/93/93 94/94/94 95/95/95
f 93/93/93 95/95/95 96/96/96
#12 polygons

